<svg width="549" height="132" viewBox="0 0 549 132" fill="none" xmlns="http://www.w3.org/2000/svg">
<circle cx="65.5" cy="66.5" r="65.5" fill="#D9D9D9"/>
<path d="M66.5 1C66.5 43.0202 66.7059 28.4945 66.7059 67.6566C66.7059 106.819 66.7059 81.3507 66.7059 132C27.5515 132 0 106.819 0 67.6566C-0.5 28.5 29.5 -4.27663e-06 66.5 1ZM66.4246 47.3968C69.1692 47.3968 71.4885 49.7166 71.4885 52.4618V82.8514C71.4885 94.0246 80.5732 103.111 91.7442 103.111C102.915 103.111 112 94.0246 112 82.8514V67.6566H96.8082V82.8514C96.8082 85.5966 94.4889 87.9163 91.7442 87.9163C88.9996 87.9163 86.6803 85.5966 86.6803 82.8514V52.4618C86.6803 41.2885 77.5956 32.202 66.4246 32.202C55.2535 32.202 46.1688 41.2885 46.1688 52.4618V57.2177L55.6282 60.5859L61.3606 58.8385V52.4618C61.3606 49.7166 63.6799 47.3968 66.4246 47.3968ZM20.8491 82.8514C20.8491 94.0246 29.9338 103.111 41.1049 103.111C52.2759 103.111 61.3606 94.0246 61.3606 82.8514V69.4293L55.3801 71.2476L46.1688 67.9706V82.8514C46.1688 85.5966 43.8495 87.9163 41.1049 87.9163C38.3602 87.9163 36.0409 85.5966 36.0409 82.8514V67.6566H20.8491V82.8514Z" fill="black"/>
<path d="M156.56 70H148.533L151.013 38.7467H163.52L165.867 49.2267L166.933 54.5333L167.947 49.2533L170.027 38.7467H181.173L183.467 70H175.173L173.813 51.6267L173.493 44.8533L169.413 66.88H162.453L157.547 44.8533L157.387 51.6267L156.56 70ZM186.096 70V52.7467L184.496 51.76V48.9067L190.229 47.3333H194.682V70H186.096ZM189.962 44.88L185.589 40.48V39.5467L189.962 35.1733H190.976L195.536 39.5467V40.48L190.976 44.88H189.962ZM206.975 70H198.361V52.7467L196.761 51.76V48.9067L202.495 47.3333H207.028V50.7733L207.348 50.3733C207.561 50.0889 207.872 49.7511 208.281 49.36C208.708 48.9689 209.179 48.5867 209.695 48.2133C210.21 47.8222 210.823 47.4933 211.535 47.2267C212.263 46.9422 212.975 46.8 213.668 46.8C216.103 46.8 217.819 47.4667 218.815 48.8C219.828 50.1333 220.335 52.3644 220.335 55.4933C220.335 55.6 220.335 55.76 220.335 55.9733C220.317 56.1867 220.308 56.3556 220.308 56.48V70H211.508V55.7067C211.561 54.0356 210.85 53.2 209.375 53.2C209.268 53.2 209.161 53.2089 209.055 53.2267C208.966 53.2444 208.877 53.2622 208.788 53.28C208.717 53.2978 208.628 53.3333 208.521 53.3867C208.432 53.4222 208.352 53.4578 208.281 53.4933C208.21 53.5111 208.13 53.5556 208.041 53.6267C207.952 53.68 207.881 53.7244 207.828 53.76C207.775 53.7956 207.695 53.8578 207.588 53.9467C207.499 54.0178 207.428 54.0711 207.375 54.1067C207.339 54.1422 207.268 54.2044 207.161 54.2933C207.072 54.3644 207.01 54.4178 206.975 54.4533V70ZM223.674 70V52.7467L222.074 51.76V48.9067L227.807 47.3333H232.26V70H223.674ZM227.54 44.88L223.167 40.48V39.5467L227.54 35.1733H228.554L233.114 39.5467V40.48L228.554 44.88H227.54ZM244.553 70H235.939V52.7467L234.339 51.76V48.9067L240.073 47.3333H244.606V50.7733C244.695 50.6489 244.819 50.4889 244.979 50.2933C245.157 50.08 245.477 49.7511 245.939 49.3067C246.402 48.8622 246.873 48.4711 247.353 48.1333C247.85 47.7956 248.446 47.4933 249.139 47.2267C249.85 46.9422 250.553 46.8 251.246 46.8C253.024 46.8 254.384 47.1378 255.326 47.8133C256.268 48.4889 256.935 49.5911 257.326 51.12C257.93 50.0711 258.855 49.0933 260.099 48.1867C261.362 47.2622 262.748 46.8 264.259 46.8C265.93 46.8 267.228 47.0933 268.153 47.68C269.095 48.2489 269.779 49.2267 270.206 50.6133C270.633 52 270.846 53.9556 270.846 56.48V70H262.179V55.7067C262.179 54.9244 261.993 54.3111 261.619 53.8667C261.246 53.4222 260.677 53.2 259.913 53.2C259.397 53.2 258.695 53.6267 257.806 54.48C257.859 55.3333 257.886 56.2578 257.886 57.2533V70H249.086V55.7067C249.139 54.0356 248.428 53.2 246.953 53.2C246.846 53.2 246.739 53.2089 246.633 53.2267C246.544 53.2444 246.455 53.2622 246.366 53.28C246.295 53.2978 246.206 53.3333 246.099 53.3867C246.01 53.4222 245.93 53.4578 245.859 53.4933C245.788 53.5111 245.708 53.5556 245.619 53.6267C245.53 53.68 245.459 53.7244 245.406 53.76C245.353 53.7956 245.273 53.8578 245.166 53.9467C245.077 54.0178 245.006 54.0711 244.953 54.1067C244.917 54.1422 244.846 54.2044 244.739 54.2933C244.65 54.3644 244.588 54.4178 244.553 54.4533V70ZM285.741 67.6267L285.474 67.92C285.296 68.1333 285.021 68.3822 284.647 68.6667C284.292 68.9511 283.874 69.2356 283.394 69.52C282.932 69.8044 282.363 70.0444 281.687 70.24C281.012 70.4533 280.318 70.56 279.607 70.56C274.807 70.56 272.407 68.1867 272.407 63.44C272.407 62.5156 272.576 61.6711 272.914 60.9067C273.252 60.1244 273.687 59.4667 274.221 58.9333C274.754 58.4 275.394 57.9289 276.141 57.52C276.887 57.0933 277.634 56.7644 278.381 56.5333C279.145 56.2844 279.945 56.08 280.781 55.92C281.616 55.76 282.363 55.6533 283.021 55.6C283.678 55.5467 284.31 55.52 284.914 55.52V55.04C284.914 53.9556 284.621 53.1911 284.034 52.7467C283.465 52.3022 282.541 52.08 281.261 52.08C280.158 52.08 279.012 52.2133 277.821 52.48C276.63 52.7289 275.696 53.0311 275.021 53.3867L273.314 49.76C274.523 48.9778 276.096 48.2933 278.034 47.7067C279.972 47.1022 281.945 46.8 283.954 46.8C285.732 46.8 287.198 46.9778 288.354 47.3333C289.51 47.6711 290.443 48.2578 291.154 49.0933C291.883 49.9111 292.398 50.96 292.701 52.24C293.003 53.5022 293.154 55.1111 293.154 57.0667V67.92L293.901 70H286.594L285.741 67.6267ZM283.634 65.8667C283.865 65.8667 284.078 65.8222 284.274 65.7333C284.487 65.6267 284.647 65.5289 284.754 65.44C284.861 65.3333 284.914 65.28 284.914 65.28V58.88C283.83 58.88 282.967 59.1822 282.327 59.7867C281.687 60.3733 281.367 61.2889 281.367 62.5333C281.367 64.7556 282.123 65.8667 283.634 65.8667ZM302.804 70.56C300.404 70.56 298.724 69.84 297.764 68.4C296.822 66.96 296.351 64.5244 296.351 61.0933V52.0267H294.511V48.32L297.658 47.3333L300.378 41.12H305.071V47.3333H309.444V52.0267H304.991V61.9467C304.991 63.3689 305.195 64.3111 305.604 64.7733C306.013 65.2356 306.644 65.4667 307.498 65.4667C307.871 65.4667 308.209 65.4222 308.511 65.3333C308.813 65.2444 309.062 65.12 309.258 64.96V68.5867C308.991 68.8533 308.644 69.12 308.218 69.3867C307.791 69.6356 307.08 69.8933 306.084 70.16C305.107 70.4267 304.013 70.56 302.804 70.56ZM318.812 70.56C317.141 70.56 315.452 70.2844 313.745 69.7333C312.039 69.1644 310.945 68.6133 310.465 68.08L311.159 63.7867C311.763 64.3733 312.768 64.88 314.172 65.3067C315.594 65.7333 317.043 65.9467 318.519 65.9467C319.585 65.9467 320.314 65.8133 320.705 65.5467C321.114 65.28 321.319 64.9067 321.319 64.4267C321.319 63.9644 320.963 63.5556 320.252 63.2C319.541 62.8267 318.385 62.4 316.785 61.92C312.643 60.6756 310.572 58.0978 310.572 54.1867C310.572 52.5867 311.034 51.2178 311.959 50.08C312.883 48.9244 314.065 48.0889 315.505 47.5733C316.945 47.0578 318.554 46.8 320.332 46.8C323.372 46.8 325.612 47.36 327.052 48.48C327.372 48.7822 327.532 48.9333 327.532 48.9333L326.359 52.7467C325.185 51.5911 323.568 51.0133 321.505 51.0133C319.817 51.0133 318.972 51.5111 318.972 52.5067C318.972 52.7911 319.034 53.0311 319.159 53.2267C319.283 53.4044 319.488 53.5644 319.772 53.7067C320.074 53.8311 320.368 53.9378 320.652 54.0267C320.937 54.0978 321.337 54.2044 321.852 54.3467C322.368 54.4711 322.812 54.5867 323.185 54.6933C325.265 55.3867 326.777 56.3644 327.719 57.6267C328.661 58.8889 329.132 60.4622 329.132 62.3467C329.132 67.8222 325.692 70.56 318.812 70.56ZM331.461 57.6267V50.9333H347.408V57.6267H331.461ZM369.482 67.7867L369.242 68.08C369.082 68.2578 368.798 68.4889 368.389 68.7733C367.998 69.04 367.518 69.3156 366.949 69.6C366.398 69.8667 365.651 70.0889 364.709 70.2667C363.785 70.4622 362.789 70.56 361.722 70.56C358.114 70.56 355.349 69.5022 353.429 67.3867C351.527 65.2711 350.576 62.4711 350.576 58.9867C350.576 57.1022 350.869 55.3867 351.456 53.84C352.042 52.2933 352.842 51.0133 353.856 50C354.887 48.9689 356.087 48.1778 357.456 47.6267C358.843 47.0578 360.336 46.7733 361.936 46.7733C365.029 46.7733 367.429 47.5111 369.136 48.9867C369.509 49.36 369.696 49.5467 369.696 49.5467L369.296 55.8133L365.509 55.84L363.989 51.76C363.847 51.7244 363.651 51.7067 363.402 51.7067C361.785 51.7067 360.665 52.2667 360.042 53.3867C359.438 54.4889 359.136 56.4089 359.136 59.1467C359.136 60.3378 359.234 61.36 359.429 62.2133C359.625 63.0489 359.847 63.68 360.096 64.1067C360.345 64.5156 360.674 64.8356 361.082 65.0667C361.509 65.2978 361.856 65.4311 362.123 65.4667C362.389 65.5022 362.718 65.52 363.109 65.52C363.998 65.52 364.905 65.4133 365.829 65.2C366.771 64.9867 367.545 64.64 368.149 64.16L369.482 67.7867ZM383.066 67.36C383.848 67.36 384.443 67.04 384.852 66.4C385.279 65.7422 385.492 64.8444 385.492 63.7067V55.28C385.492 51.8133 384.675 50.08 383.039 50.08C382.275 50.08 381.679 50.3911 381.252 51.0133C380.826 51.6356 380.612 52.5156 380.612 53.6533V62.32C380.612 65.68 381.43 67.36 383.066 67.36ZM382.852 70.56C378.781 70.56 375.803 69.6356 373.919 67.7867C372.035 65.9378 371.092 62.9867 371.092 58.9333C371.092 54.9156 372.043 51.8933 373.946 49.8667C375.848 47.8222 378.941 46.8 383.226 46.8C387.403 46.8 390.417 47.7778 392.266 49.7333C394.132 51.6711 395.066 54.6133 395.066 58.56C395.066 62.6489 394.079 65.6711 392.106 67.6267C390.15 69.5822 387.066 70.56 382.852 70.56ZM406.584 70H397.971V52.7467L396.371 51.76V48.9067L402.104 47.3333H406.637V50.7733C406.726 50.6489 406.851 50.4889 407.011 50.2933C407.188 50.08 407.508 49.7511 407.971 49.3067C408.433 48.8622 408.904 48.4711 409.384 48.1333C409.882 47.7956 410.477 47.4933 411.171 47.2267C411.882 46.9422 412.584 46.8 413.277 46.8C415.055 46.8 416.415 47.1378 417.357 47.8133C418.3 48.4889 418.966 49.5911 419.357 51.12C419.962 50.0711 420.886 49.0933 422.131 48.1867C423.393 47.2622 424.78 46.8 426.291 46.8C427.962 46.8 429.26 47.0933 430.184 47.68C431.126 48.2489 431.811 49.2267 432.237 50.6133C432.664 52 432.877 53.9556 432.877 56.48V70H424.211V55.7067C424.211 54.9244 424.024 54.3111 423.651 53.8667C423.277 53.4222 422.708 53.2 421.944 53.2C421.428 53.2 420.726 53.6267 419.837 54.48C419.891 55.3333 419.917 56.2578 419.917 57.2533V70H411.117V55.7067C411.171 54.0356 410.46 53.2 408.984 53.2C408.877 53.2 408.771 53.2089 408.664 53.2267C408.575 53.2444 408.486 53.2622 408.397 53.28C408.326 53.2978 408.237 53.3333 408.131 53.3867C408.042 53.4222 407.962 53.4578 407.891 53.4933C407.82 53.5111 407.74 53.5556 407.651 53.6267C407.562 53.68 407.491 53.7244 407.437 53.76C407.384 53.7956 407.304 53.8578 407.197 53.9467C407.108 54.0178 407.037 54.0711 406.984 54.1067C406.948 54.1422 406.877 54.2044 406.771 54.2933C406.682 54.3644 406.62 54.4178 406.584 54.4533V70ZM449.905 70C448.874 70 447.932 69.8933 447.079 69.68C446.225 69.4667 445.479 69.2 444.839 68.88V78.0533H436.252V52.7467L434.652 51.76V48.9067L440.385 47.3333H444.839V49.12C445.479 48.4622 446.252 47.9111 447.159 47.4667C448.065 47.0222 449.123 46.8 450.332 46.8C453.265 46.8 455.416 47.8044 456.785 49.8133C458.172 51.8222 458.865 54.6044 458.865 58.16C458.865 59.8311 458.679 61.3778 458.305 62.8C457.932 64.2044 457.381 65.4489 456.652 66.5333C455.923 67.6178 454.981 68.4711 453.825 69.0933C452.687 69.6978 451.381 70 449.905 70ZM445.985 66.2933C448.367 66.2933 449.559 64.4711 449.559 60.8267V56.2933C449.559 54.6933 449.283 53.5022 448.732 52.72C448.199 51.9378 447.505 51.5467 446.652 51.5467C446.065 51.5467 445.461 51.7244 444.839 52.08V66.16C445.052 66.2133 445.247 66.2489 445.425 66.2667C445.621 66.2844 445.807 66.2933 445.985 66.2933ZM473.475 67.6267L473.208 67.92C473.031 68.1333 472.755 68.3822 472.382 68.6667C472.026 68.9511 471.608 69.2356 471.128 69.52C470.666 69.8044 470.097 70.0444 469.422 70.24C468.746 70.4533 468.053 70.56 467.342 70.56C462.542 70.56 460.142 68.1867 460.142 63.44C460.142 62.5156 460.311 61.6711 460.648 60.9067C460.986 60.1244 461.422 59.4667 461.955 58.9333C462.488 58.4 463.128 57.9289 463.875 57.52C464.622 57.0933 465.368 56.7644 466.115 56.5333C466.879 56.2844 467.679 56.08 468.515 55.92C469.351 55.76 470.097 55.6533 470.755 55.6C471.413 55.5467 472.044 55.52 472.648 55.52V55.04C472.648 53.9556 472.355 53.1911 471.768 52.7467C471.199 52.3022 470.275 52.08 468.995 52.08C467.893 52.08 466.746 52.2133 465.555 52.48C464.364 52.7289 463.431 53.0311 462.755 53.3867L461.048 49.76C462.257 48.9778 463.831 48.2933 465.768 47.7067C467.706 47.1022 469.679 46.8 471.688 46.8C473.466 46.8 474.933 46.9778 476.088 47.3333C477.244 47.6711 478.177 48.2578 478.888 49.0933C479.617 49.9111 480.133 50.96 480.435 52.24C480.737 53.5022 480.888 55.1111 480.888 57.0667V67.92L481.635 70H474.328L473.475 67.6267ZM471.368 65.8667C471.599 65.8667 471.813 65.8222 472.008 65.7333C472.222 65.6267 472.382 65.5289 472.488 65.44C472.595 65.3333 472.648 65.28 472.648 65.28V58.88C471.564 58.88 470.702 59.1822 470.062 59.7867C469.422 60.3733 469.102 61.2889 469.102 62.5333C469.102 64.7556 469.857 65.8667 471.368 65.8667ZM492.912 70H484.299V52.7467L482.699 51.76V48.9067L488.432 47.3333H492.965V50.7733L493.285 50.3733C493.499 50.0889 493.81 49.7511 494.219 49.36C494.645 48.9689 495.117 48.5867 495.632 48.2133C496.148 47.8222 496.761 47.4933 497.472 47.2267C498.201 46.9422 498.912 46.8 499.605 46.8C502.041 46.8 503.757 47.4667 504.752 48.8C505.765 50.1333 506.272 52.3644 506.272 55.4933C506.272 55.6 506.272 55.76 506.272 55.9733C506.254 56.1867 506.245 56.3556 506.245 56.48V70H497.445V55.7067C497.499 54.0356 496.788 53.2 495.312 53.2C495.205 53.2 495.099 53.2089 494.992 53.2267C494.903 53.2444 494.814 53.2622 494.725 53.28C494.654 53.2978 494.565 53.3333 494.459 53.3867C494.37 53.4222 494.29 53.4578 494.219 53.4933C494.148 53.5111 494.068 53.5556 493.979 53.6267C493.89 53.68 493.819 53.7244 493.765 53.76C493.712 53.7956 493.632 53.8578 493.525 53.9467C493.437 54.0178 493.365 54.0711 493.312 54.1067C493.277 54.1422 493.205 54.2044 493.099 54.2933C493.01 54.3644 492.948 54.4178 492.912 54.4533V70ZM520.545 79.1733C518.713 79.1733 516.989 78.9067 515.371 78.3733C513.753 77.84 512.571 77.12 511.825 76.2133L513.211 73.3333C514.242 73.92 515.878 74.2133 518.118 74.2133C518.829 74.2133 519.442 74.1333 519.958 73.9733C520.473 73.8133 520.936 73.5289 521.345 73.12C521.753 72.7289 522.065 72.1689 522.278 71.44C522.491 70.7111 522.607 69.8133 522.625 68.7467V66.4533L522.358 66.88C522.18 67.1644 521.905 67.5111 521.531 67.92C521.176 68.3111 520.767 68.7111 520.305 69.12C519.842 69.5111 519.273 69.8489 518.598 70.1333C517.94 70.4178 517.265 70.56 516.571 70.56C513.922 70.56 512.056 69.8222 510.971 68.3467C509.887 66.8533 509.345 64.3467 509.345 60.8267V51.36L508.385 50.4V47.3333H518.091V62.5067C518.091 63.3244 518.216 63.9289 518.465 64.32C518.731 64.6933 519.256 64.88 520.038 64.88C520.269 64.88 520.5 64.8444 520.731 64.7733C520.962 64.6844 521.185 64.5689 521.398 64.4267C521.629 64.2844 521.869 64.1067 522.118 63.8933V51.36L520.651 50.4V47.3333H530.811V66.88C530.811 70.8089 529.976 73.84 528.305 75.9733C526.633 78.1067 524.047 79.1733 520.545 79.1733Z" fill="black"/>
<path d="M186.121 94.1722C187.608 94.3556 188.708 94.8343 189.421 95.6083C190.155 96.362 190.521 97.2991 190.521 98.4194C190.521 99.5398 190.104 100.599 189.268 101.597C188.454 102.595 187.405 103.369 186.121 103.919C185.551 104.144 184.797 104.306 183.86 104.408C182.943 104.51 181.996 104.561 181.018 104.561C179.389 104.561 177.718 104.408 176.007 104.103C175.702 104.042 175.376 103.889 175.03 103.644C174.704 103.4 174.541 103.044 174.541 102.575C174.52 100.701 174.449 98.0935 174.327 94.7528L174.296 93.0722C174.215 90.4648 174.174 88.4176 174.174 86.9306C174.174 86.6657 174.327 86.3602 174.632 86.0139C174.958 85.6472 175.345 85.4435 175.793 85.4028C176.058 85.4028 176.313 85.3926 176.557 85.3722C178.859 85.1481 180.397 85.0361 181.171 85.0361C182.699 85.0361 184.043 85.1889 185.205 85.4944C186.386 85.7796 187.364 86.3093 188.138 87.0833C188.423 87.4093 188.657 87.8269 188.841 88.3361C189.024 88.825 189.116 89.3037 189.116 89.7722C189.136 90.7704 188.871 91.687 188.321 92.5222C187.792 93.3574 187.058 93.9074 186.121 94.1722ZM181.355 87.6333C180.662 87.6333 179.939 87.6741 179.185 87.7556C178.452 87.837 177.83 87.9389 177.321 88.0611L177.505 93.8361L178.605 93.8056C180.377 93.6222 181.68 93.4694 182.516 93.3472C183.045 93.225 183.565 92.9907 184.074 92.6444C184.583 92.2778 185.001 91.9009 185.327 91.5139C185.673 91.1065 185.846 90.8009 185.846 90.5972C185.846 90.2917 185.785 89.9861 185.663 89.6806C185.541 89.3546 185.408 89.1204 185.266 88.9778C184.716 88.4481 184.155 88.0917 183.585 87.9083C183.015 87.725 182.271 87.6333 181.355 87.6333ZM177.596 101.872C178.635 102.015 179.623 102.086 180.56 102.086C182.618 102.086 184.237 101.821 185.418 101.292C186.62 100.742 187.221 99.7028 187.221 98.175C187.221 97.5639 186.763 97.0546 185.846 96.6472C184.93 96.2398 183.942 96.0361 182.882 96.0361C182.169 96.0361 181.263 96.1176 180.163 96.2806C179.287 96.4028 178.431 96.4843 177.596 96.525C177.637 97.7472 177.657 98.5213 177.657 98.8472C177.657 99.4787 177.647 99.9574 177.627 100.283L177.596 101.872ZM196.528 110.733C195.754 110.733 195.103 110.601 194.573 110.336C194.064 110.092 193.677 109.786 193.412 109.419C193.167 109.073 193.045 108.768 193.045 108.503C193.045 108.156 193.167 107.881 193.412 107.678C193.656 107.494 193.952 107.403 194.298 107.403C194.502 107.403 194.695 107.464 194.878 107.586C195.062 107.708 195.164 107.78 195.184 107.8C195.327 107.902 195.469 107.983 195.612 108.044C195.754 108.126 195.907 108.167 196.07 108.167C196.518 108.167 196.885 107.871 197.17 107.281C197.455 106.69 197.741 105.732 198.026 104.408C197.109 103.064 196.345 101.719 195.734 100.375L195.031 98.7556C194.929 98.5111 194.644 97.8796 194.176 96.8611C193.728 95.8222 193.279 94.9056 192.831 94.1111C192.546 93.5407 192.403 93.1537 192.403 92.95C192.403 92.4407 192.577 92.0639 192.923 91.8194C193.29 91.575 193.707 91.4528 194.176 91.4528C194.502 91.4528 194.746 91.5241 194.909 91.6667C195.092 91.7889 195.296 92.0231 195.52 92.3694C196.111 93.3472 196.753 94.8139 197.445 96.7694C197.853 97.8898 198.178 98.7454 198.423 99.3361C198.667 99.9065 198.963 100.487 199.309 101.078C199.655 100.283 200.093 98.9287 200.623 97.0139C200.949 95.9139 201.214 95.038 201.417 94.3861C201.641 93.7139 201.886 93.1028 202.151 92.5528C202.334 92.1861 202.558 91.8907 202.823 91.6667C203.108 91.4426 203.424 91.3306 203.77 91.3306C204.116 91.3306 204.483 91.463 204.87 91.7278C205.278 91.9722 205.481 92.2676 205.481 92.6139C205.481 92.8176 205.41 93.062 205.267 93.3472C204.473 95.1806 203.77 96.912 203.159 98.5417C202.568 100.151 201.998 101.923 201.448 103.858C201.122 104.938 200.776 105.967 200.409 106.944C200.063 107.922 199.818 108.523 199.676 108.747C199.268 109.318 198.81 109.786 198.301 110.153C197.791 110.54 197.201 110.733 196.528 110.733ZM229.876 88.0917C230.181 88.4583 230.395 88.7537 230.517 88.9778C230.639 89.2019 230.701 89.4157 230.701 89.6194C230.701 89.8639 230.538 90.1491 230.212 90.475C229.906 90.8009 229.601 90.9639 229.295 90.9639C228.888 90.9639 228.562 90.9028 228.317 90.7806C228.073 90.6583 227.869 90.4648 227.706 90.2C227.319 89.5889 226.871 89.0491 226.362 88.5806C225.852 88.0917 225.17 87.8472 224.314 87.8472C223.479 87.8472 222.542 88.0407 221.503 88.4278C220.464 88.8148 219.701 89.2935 219.212 89.8639C218.112 91.2083 217.562 92.9907 217.562 95.2111C217.562 96.9833 218.112 98.5009 219.212 99.7639C220.373 101.068 221.839 101.719 223.612 101.719C224.427 101.719 225.313 101.577 226.27 101.292C227.248 100.986 228.022 100.497 228.592 99.825H228.562C228.928 99.438 229.387 99.2444 229.937 99.2444C230.263 99.2444 230.568 99.387 230.853 99.6722C231.159 99.9574 231.312 100.243 231.312 100.528C231.312 100.833 231.261 101.108 231.159 101.353C231.077 101.577 230.914 101.831 230.67 102.117C229.835 103.033 228.765 103.675 227.462 104.042C226.178 104.388 224.712 104.561 223.062 104.561C221.697 104.561 220.383 104.235 219.12 103.583C217.877 102.931 216.849 102.106 216.034 101.108C215.627 100.518 215.229 99.6722 214.842 98.5722C214.476 97.4519 214.292 96.5454 214.292 95.8528C214.292 94.0806 214.557 92.4 215.087 90.8111C215.637 89.2019 216.452 87.9185 217.531 86.9611C218.244 86.3093 219.273 85.8204 220.617 85.4944C221.962 85.1685 223.194 85.0056 224.314 85.0056C225.211 85.0056 225.975 85.138 226.606 85.4028C227.258 85.6472 227.818 85.9833 228.287 86.4111C228.755 86.8185 229.285 87.3787 229.876 88.0917ZM247.921 103.033C247.921 103.481 247.677 103.858 247.188 104.164C246.719 104.469 246.281 104.622 245.874 104.622C245.1 104.622 244.478 104.531 244.01 104.347C243.562 104.144 243.144 103.777 242.757 103.247C242.228 103.716 241.504 104.072 240.588 104.317C239.671 104.541 238.826 104.653 238.052 104.653C236.789 104.653 235.75 104.317 234.935 103.644C234.12 102.952 233.713 101.944 233.713 100.619C233.713 100.049 233.865 99.5296 234.171 99.0611C234.477 98.5722 234.894 98.1444 235.424 97.7778C236.015 97.3907 236.687 97.0954 237.44 96.8917C238.194 96.6676 238.978 96.5556 239.793 96.5556C240.221 96.5556 240.73 96.637 241.321 96.8C241.912 96.963 242.37 97.1361 242.696 97.3194V96.8306C242.696 95.7306 242.431 94.9769 241.902 94.5694C241.372 94.1417 240.516 93.9278 239.335 93.9278C238.989 93.9278 238.642 93.9991 238.296 94.1417C237.97 94.2843 237.593 94.4778 237.165 94.7222C236.595 95.0278 236.055 95.1806 235.546 95.1806C235.363 95.1806 235.19 95.0583 235.027 94.8139C234.864 94.5491 234.782 94.3148 234.782 94.1111C234.782 93.5204 235.057 93.0111 235.607 92.5833C236.178 92.1556 236.85 91.8398 237.624 91.6361C238.398 91.412 239.09 91.3 239.702 91.3C240.313 91.3 241.015 91.4222 241.81 91.6667C242.604 91.8907 243.256 92.2065 243.765 92.6139C244.377 93.1435 244.845 93.7648 245.171 94.4778C245.517 95.1704 245.69 95.9343 245.69 96.7694C245.69 97.0343 245.67 97.4315 245.629 97.9611C245.589 98.5315 245.568 99.0204 245.568 99.4278C245.568 99.6111 245.548 99.8861 245.507 100.253C245.466 100.701 245.446 101.057 245.446 101.322C245.446 101.567 245.538 101.781 245.721 101.964C245.904 102.127 246.118 102.208 246.363 102.208L247.218 102.178C247.442 102.178 247.615 102.259 247.738 102.422C247.86 102.585 247.921 102.789 247.921 103.033ZM238.082 102.239C238.958 102.239 239.691 102.147 240.282 101.964C240.873 101.781 241.586 101.444 242.421 100.956C242.503 100.609 242.553 100.151 242.574 99.5806C241.453 99.0509 240.527 98.7861 239.793 98.7861C238.958 98.7861 238.215 98.9389 237.563 99.2444C236.911 99.55 236.585 100.09 236.585 100.864C236.585 101.251 236.748 101.577 237.074 101.842C237.4 102.106 237.736 102.239 238.082 102.239ZM251.266 91.2389C252.611 91.2389 253.283 92.125 253.283 93.8972C253.283 94.1213 253.263 94.6204 253.222 95.3944C253.181 96.2907 253.161 96.9935 253.161 97.5028C253.161 98.9287 253.354 100.08 253.741 100.956C253.884 101.241 254.139 101.465 254.505 101.628C254.892 101.791 255.218 101.872 255.483 101.872C255.89 101.872 256.227 101.821 256.491 101.719C256.756 101.618 257.001 101.465 257.225 101.261C257.469 101.057 257.703 100.833 257.927 100.589C258.315 100.161 258.559 99.6722 258.661 99.1222C258.783 98.5519 258.854 97.7981 258.875 96.8611C258.875 96.2704 258.905 95.7 258.966 95.15C259.089 94.2537 259.15 93.4185 259.15 92.6444C259.15 92.2167 259.262 91.8602 259.486 91.575C259.73 91.2694 260.077 91.1167 260.525 91.1167C260.749 91.1167 261.014 91.1981 261.319 91.3611C261.645 91.5037 261.859 91.6667 261.961 91.85C262.103 92.0944 262.175 92.4306 262.175 92.8583C262.175 93.1231 262.144 93.3676 262.083 93.5917C261.981 93.8972 261.93 94.2843 261.93 94.7528C261.93 94.9972 261.951 95.4046 261.991 95.975C262.052 96.4028 262.083 96.8407 262.083 97.2889C262.083 98.6537 262.185 99.662 262.389 100.314C262.613 101.006 262.918 101.618 263.305 102.147C263.713 102.575 263.988 102.891 264.13 103.094C264.273 103.278 264.344 103.441 264.344 103.583C264.344 103.828 264.222 104.062 263.977 104.286C263.733 104.51 263.478 104.622 263.214 104.622C262.46 104.622 261.798 104.368 261.227 103.858C260.677 103.329 260.27 102.656 260.005 101.842C259.781 102.106 259.486 102.432 259.119 102.819C258.752 103.206 258.406 103.522 258.08 103.767C257.286 104.337 256.267 104.622 255.025 104.622C254.515 104.622 253.955 104.469 253.344 104.164C252.753 103.858 252.214 103.461 251.725 102.972C251.236 102.463 250.9 101.923 250.716 101.353C250.696 101.312 250.635 101.149 250.533 100.864C250.452 100.579 250.411 100.151 250.411 99.5806L250.38 94.6917C250.38 94.4065 250.309 93.9583 250.166 93.3472C250.044 92.9398 249.983 92.6343 249.983 92.4306C249.983 92.0843 250.095 91.7991 250.319 91.575C250.564 91.3509 250.879 91.2389 251.266 91.2389ZM268.191 87.3583C267.824 87.7657 267.641 88.2241 267.641 88.7333C267.641 88.9981 267.753 89.212 267.977 89.375C268.201 89.538 268.415 89.6194 268.619 89.6194C269.128 89.6194 269.546 89.3852 269.872 88.9167C270.198 88.4278 270.666 88.1833 271.277 88.1833C271.461 88.1833 271.623 88.2241 271.766 88.3056C271.929 88.387 272.133 88.5194 272.377 88.7028C272.764 88.988 273.121 89.2019 273.447 89.3444C273.773 89.487 274.2 89.5583 274.73 89.5583C275.198 89.5583 275.657 89.4361 276.105 89.1917C276.573 88.9269 276.95 88.6009 277.236 88.2139C277.541 87.8065 277.694 87.3991 277.694 86.9917C277.694 86.6861 277.582 86.462 277.358 86.3194C277.154 86.1565 276.92 86.075 276.655 86.075C276.431 86.075 276.248 86.1259 276.105 86.2278C275.962 86.3093 275.83 86.4417 275.708 86.625C275.687 86.6657 275.636 86.7472 275.555 86.8694C275.494 86.9917 275.402 87.1037 275.28 87.2056C275.158 87.3074 274.995 87.3583 274.791 87.3583C274.424 87.3787 273.956 87.1852 273.386 86.7778C272.673 86.2889 271.929 86.0444 271.155 86.0444C270.646 86.0444 270.116 86.1667 269.566 86.4111C269.016 86.6352 268.558 86.9509 268.191 87.3583ZM280.352 102.422C280.474 102.585 280.536 102.789 280.536 103.033C280.536 103.481 280.291 103.858 279.802 104.164C279.334 104.469 278.896 104.622 278.488 104.622C277.714 104.622 277.093 104.531 276.624 104.347C276.176 104.144 275.759 103.777 275.372 103.247C274.842 103.716 274.119 104.072 273.202 104.317C272.286 104.541 271.44 104.653 270.666 104.653C269.403 104.653 268.364 104.317 267.549 103.644C266.735 102.952 266.327 101.944 266.327 100.619C266.327 100.049 266.48 99.5296 266.786 99.0611C267.091 98.5722 267.509 98.1444 268.038 97.7778C268.629 97.3907 269.301 97.0954 270.055 96.8917C270.809 96.6676 271.593 96.5556 272.408 96.5556C272.836 96.5556 273.345 96.637 273.936 96.8C274.526 96.963 274.985 97.1361 275.311 97.3194V96.8306C275.311 95.7306 275.046 94.9769 274.516 94.5694C273.986 94.1417 273.131 93.9278 271.949 93.9278C271.603 93.9278 271.257 93.9991 270.911 94.1417C270.585 94.2843 270.208 94.4778 269.78 94.7222C269.21 95.0278 268.67 95.1806 268.161 95.1806C267.977 95.1806 267.804 95.0583 267.641 94.8139C267.478 94.5491 267.397 94.3148 267.397 94.1111C267.397 93.5204 267.672 93.0111 268.222 92.5833C268.792 92.1556 269.464 91.8398 270.238 91.6361C271.012 91.412 271.705 91.3 272.316 91.3C272.927 91.3 273.63 91.4222 274.424 91.6667C275.219 91.8907 275.871 92.2065 276.38 92.6139C276.991 93.1435 277.46 93.7648 277.786 94.4778C278.132 95.1704 278.305 95.9343 278.305 96.7694C278.305 97.0343 278.285 97.4315 278.244 97.9611C278.203 98.5315 278.183 99.0204 278.183 99.4278C278.183 99.6111 278.162 99.8861 278.122 100.253C278.081 100.701 278.061 101.057 278.061 101.322C278.061 101.567 278.152 101.781 278.336 101.964C278.519 102.127 278.733 102.208 278.977 102.208L279.833 102.178C280.057 102.178 280.23 102.259 280.352 102.422ZM269.688 101.842C270.014 102.106 270.35 102.239 270.697 102.239C271.573 102.239 272.306 102.147 272.897 101.964C273.487 101.781 274.2 101.444 275.036 100.956C275.117 100.609 275.168 100.151 275.188 99.5806C274.068 99.0509 273.141 98.7861 272.408 98.7861C271.573 98.7861 270.829 98.9389 270.177 99.2444C269.525 99.55 269.199 100.09 269.199 100.864C269.199 101.251 269.362 101.577 269.688 101.842Z" fill="#848484"/>
</svg>
