<svg width="549" height="133" viewBox="0 0 549 133" fill="none" xmlns="http://www.w3.org/2000/svg">
<circle cx="65.5" cy="66.5" r="64" fill="#D9D9D9" stroke="black" stroke-width="3"/>
<path d="M65.001 2.47644C29.5266 2.27521 1.01747 29.849 1.5 67.6376V67.6561C1.5 86.8748 8.20158 102.681 19.6084 113.684C30.7234 124.406 46.4111 130.666 65.001 130.985C65.003 106.914 65.052 100.646 65.1025 95.7548C65.154 90.7762 65.2061 87.2322 65.2061 67.6561C65.2061 59.4723 65.1949 53.6341 65.1807 49.1346C63.8471 49.6572 62.8604 50.9788 62.8604 52.4618V59.9491L61.7979 60.2733L56.0654 62.0204L55.5918 62.1649L55.125 61.9989L45.666 58.6307L44.6689 58.2762V52.4618C44.6689 40.9156 53.6989 31.4468 65.0693 30.745C65.0328 25.2073 65.0028 17.7125 65.001 2.47644ZM46.6719 66.5575L55.416 69.6678L60.9238 67.994L62.8604 67.4052V82.8514C62.8603 94.8528 53.1042 104.611 41.1045 104.611C29.1049 104.611 19.3487 94.8527 19.3486 82.8514V66.1561H37.541V82.8514C37.5411 84.7683 39.1887 86.4157 41.1045 86.4159C43.0204 86.4159 44.6689 84.7685 44.6689 82.8514V65.8446L46.6719 66.5575ZM68.1025 35.3885C68.1274 38.5383 68.1528 41.6048 68.1719 46.1415C70.9218 46.9237 72.9883 49.4914 72.9883 52.4618V82.8514C72.9883 93.1965 81.4019 101.611 91.7441 101.611C102.086 101.611 110.5 93.1965 110.5 82.8514V69.1561H98.3086V82.8514C98.3086 86.4247 95.3175 89.4159 91.7441 89.4159C88.1709 89.4158 85.1807 86.4247 85.1807 82.8514V52.4618C85.1807 42.6787 77.6561 34.6227 68.0918 33.7762C68.096 34.321 68.0983 34.8561 68.1025 35.3885Z" fill="black" stroke="black" stroke-width="3"/>
<path d="M156.56 70H148.533L151.013 38.7467H163.52L165.867 49.2267L166.933 54.5333L167.947 49.2533L170.027 38.7467H181.173L183.467 70H175.173L173.813 51.6267L173.493 44.8533L169.413 66.88H162.453L157.547 44.8533L157.387 51.6267L156.56 70ZM186.096 70V52.7467L184.496 51.76V48.9067L190.229 47.3333H194.682V70H186.096ZM189.962 44.88L185.589 40.48V39.5467L189.962 35.1733H190.976L195.536 39.5467V40.48L190.976 44.88H189.962ZM206.975 70H198.361V52.7467L196.761 51.76V48.9067L202.495 47.3333H207.028V50.7733L207.348 50.3733C207.561 50.0889 207.872 49.7511 208.281 49.36C208.708 48.9689 209.179 48.5867 209.695 48.2133C210.21 47.8222 210.823 47.4933 211.535 47.2267C212.263 46.9422 212.975 46.8 213.668 46.8C216.103 46.8 217.819 47.4667 218.815 48.8C219.828 50.1333 220.335 52.3644 220.335 55.4933C220.335 55.6 220.335 55.76 220.335 55.9733C220.317 56.1867 220.308 56.3556 220.308 56.48V70H211.508V55.7067C211.561 54.0356 210.85 53.2 209.375 53.2C209.268 53.2 209.161 53.2089 209.055 53.2267C208.966 53.2444 208.877 53.2622 208.788 53.28C208.717 53.2978 208.628 53.3333 208.521 53.3867C208.432 53.4222 208.352 53.4578 208.281 53.4933C208.21 53.5111 208.13 53.5556 208.041 53.6267C207.952 53.68 207.881 53.7244 207.828 53.76C207.775 53.7956 207.695 53.8578 207.588 53.9467C207.499 54.0178 207.428 54.0711 207.375 54.1067C207.339 54.1422 207.268 54.2044 207.161 54.2933C207.072 54.3644 207.01 54.4178 206.975 54.4533V70ZM223.674 70V52.7467L222.074 51.76V48.9067L227.807 47.3333H232.26V70H223.674ZM227.54 44.88L223.167 40.48V39.5467L227.54 35.1733H228.554L233.114 39.5467V40.48L228.554 44.88H227.54ZM244.553 70H235.939V52.7467L234.339 51.76V48.9067L240.073 47.3333H244.606V50.7733C244.695 50.6489 244.819 50.4889 244.979 50.2933C245.157 50.08 245.477 49.7511 245.939 49.3067C246.402 48.8622 246.873 48.4711 247.353 48.1333C247.85 47.7956 248.446 47.4933 249.139 47.2267C249.85 46.9422 250.553 46.8 251.246 46.8C253.024 46.8 254.384 47.1378 255.326 47.8133C256.268 48.4889 256.935 49.5911 257.326 51.12C257.93 50.0711 258.855 49.0933 260.099 48.1867C261.362 47.2622 262.748 46.8 264.259 46.8C265.93 46.8 267.228 47.0933 268.153 47.68C269.095 48.2489 269.779 49.2267 270.206 50.6133C270.633 52 270.846 53.9556 270.846 56.48V70H262.179V55.7067C262.179 54.9244 261.993 54.3111 261.619 53.8667C261.246 53.4222 260.677 53.2 259.913 53.2C259.397 53.2 258.695 53.6267 257.806 54.48C257.859 55.3333 257.886 56.2578 257.886 57.2533V70H249.086V55.7067C249.139 54.0356 248.428 53.2 246.953 53.2C246.846 53.2 246.739 53.2089 246.633 53.2267C246.544 53.2444 246.455 53.2622 246.366 53.28C246.295 53.2978 246.206 53.3333 246.099 53.3867C246.01 53.4222 245.93 53.4578 245.859 53.4933C245.788 53.5111 245.708 53.5556 245.619 53.6267C245.53 53.68 245.459 53.7244 245.406 53.76C245.353 53.7956 245.273 53.8578 245.166 53.9467C245.077 54.0178 245.006 54.0711 244.953 54.1067C244.917 54.1422 244.846 54.2044 244.739 54.2933C244.65 54.3644 244.588 54.4178 244.553 54.4533V70ZM285.741 67.6267L285.474 67.92C285.296 68.1333 285.021 68.3822 284.647 68.6667C284.292 68.9511 283.874 69.2356 283.394 69.52C282.932 69.8044 282.363 70.0444 281.687 70.24C281.012 70.4533 280.318 70.56 279.607 70.56C274.807 70.56 272.407 68.1867 272.407 63.44C272.407 62.5156 272.576 61.6711 272.914 60.9067C273.252 60.1244 273.687 59.4667 274.221 58.9333C274.754 58.4 275.394 57.9289 276.141 57.52C276.887 57.0933 277.634 56.7644 278.381 56.5333C279.145 56.2844 279.945 56.08 280.781 55.92C281.616 55.76 282.363 55.6533 283.021 55.6C283.678 55.5467 284.31 55.52 284.914 55.52V55.04C284.914 53.9556 284.621 53.1911 284.034 52.7467C283.465 52.3022 282.541 52.08 281.261 52.08C280.158 52.08 279.012 52.2133 277.821 52.48C276.63 52.7289 275.696 53.0311 275.021 53.3867L273.314 49.76C274.523 48.9778 276.096 48.2933 278.034 47.7067C279.972 47.1022 281.945 46.8 283.954 46.8C285.732 46.8 287.198 46.9778 288.354 47.3333C289.51 47.6711 290.443 48.2578 291.154 49.0933C291.883 49.9111 292.398 50.96 292.701 52.24C293.003 53.5022 293.154 55.1111 293.154 57.0667V67.92L293.901 70H286.594L285.741 67.6267ZM283.634 65.8667C283.865 65.8667 284.078 65.8222 284.274 65.7333C284.487 65.6267 284.647 65.5289 284.754 65.44C284.861 65.3333 284.914 65.28 284.914 65.28V58.88C283.83 58.88 282.967 59.1822 282.327 59.7867C281.687 60.3733 281.367 61.2889 281.367 62.5333C281.367 64.7556 282.123 65.8667 283.634 65.8667ZM302.804 70.56C300.404 70.56 298.724 69.84 297.764 68.4C296.822 66.96 296.351 64.5244 296.351 61.0933V52.0267H294.511V48.32L297.658 47.3333L300.378 41.12H305.071V47.3333H309.444V52.0267H304.991V61.9467C304.991 63.3689 305.195 64.3111 305.604 64.7733C306.013 65.2356 306.644 65.4667 307.498 65.4667C307.871 65.4667 308.209 65.4222 308.511 65.3333C308.813 65.2444 309.062 65.12 309.258 64.96V68.5867C308.991 68.8533 308.644 69.12 308.218 69.3867C307.791 69.6356 307.08 69.8933 306.084 70.16C305.107 70.4267 304.013 70.56 302.804 70.56ZM318.812 70.56C317.141 70.56 315.452 70.2844 313.745 69.7333C312.039 69.1644 310.945 68.6133 310.465 68.08L311.159 63.7867C311.763 64.3733 312.768 64.88 314.172 65.3067C315.594 65.7333 317.043 65.9467 318.519 65.9467C319.585 65.9467 320.314 65.8133 320.705 65.5467C321.114 65.28 321.319 64.9067 321.319 64.4267C321.319 63.9644 320.963 63.5556 320.252 63.2C319.541 62.8267 318.385 62.4 316.785 61.92C312.643 60.6756 310.572 58.0978 310.572 54.1867C310.572 52.5867 311.034 51.2178 311.959 50.08C312.883 48.9244 314.065 48.0889 315.505 47.5733C316.945 47.0578 318.554 46.8 320.332 46.8C323.372 46.8 325.612 47.36 327.052 48.48C327.372 48.7822 327.532 48.9333 327.532 48.9333L326.359 52.7467C325.185 51.5911 323.568 51.0133 321.505 51.0133C319.817 51.0133 318.972 51.5111 318.972 52.5067C318.972 52.7911 319.034 53.0311 319.159 53.2267C319.283 53.4044 319.488 53.5644 319.772 53.7067C320.074 53.8311 320.368 53.9378 320.652 54.0267C320.937 54.0978 321.337 54.2044 321.852 54.3467C322.368 54.4711 322.812 54.5867 323.185 54.6933C325.265 55.3867 326.777 56.3644 327.719 57.6267C328.661 58.8889 329.132 60.4622 329.132 62.3467C329.132 67.8222 325.692 70.56 318.812 70.56ZM331.461 57.6267V50.9333H347.408V57.6267H331.461ZM369.482 67.7867L369.242 68.08C369.082 68.2578 368.798 68.4889 368.389 68.7733C367.998 69.04 367.518 69.3156 366.949 69.6C366.398 69.8667 365.651 70.0889 364.709 70.2667C363.785 70.4622 362.789 70.56 361.722 70.56C358.114 70.56 355.349 69.5022 353.429 67.3867C351.527 65.2711 350.576 62.4711 350.576 58.9867C350.576 57.1022 350.869 55.3867 351.456 53.84C352.042 52.2933 352.842 51.0133 353.856 50C354.887 48.9689 356.087 48.1778 357.456 47.6267C358.843 47.0578 360.336 46.7733 361.936 46.7733C365.029 46.7733 367.429 47.5111 369.136 48.9867C369.509 49.36 369.696 49.5467 369.696 49.5467L369.296 55.8133L365.509 55.84L363.989 51.76C363.847 51.7244 363.651 51.7067 363.402 51.7067C361.785 51.7067 360.665 52.2667 360.042 53.3867C359.438 54.4889 359.136 56.4089 359.136 59.1467C359.136 60.3378 359.234 61.36 359.429 62.2133C359.625 63.0489 359.847 63.68 360.096 64.1067C360.345 64.5156 360.674 64.8356 361.082 65.0667C361.509 65.2978 361.856 65.4311 362.123 65.4667C362.389 65.5022 362.718 65.52 363.109 65.52C363.998 65.52 364.905 65.4133 365.829 65.2C366.771 64.9867 367.545 64.64 368.149 64.16L369.482 67.7867ZM383.066 67.36C383.848 67.36 384.443 67.04 384.852 66.4C385.279 65.7422 385.492 64.8444 385.492 63.7067V55.28C385.492 51.8133 384.675 50.08 383.039 50.08C382.275 50.08 381.679 50.3911 381.252 51.0133C380.826 51.6356 380.612 52.5156 380.612 53.6533V62.32C380.612 65.68 381.43 67.36 383.066 67.36ZM382.852 70.56C378.781 70.56 375.803 69.6356 373.919 67.7867C372.035 65.9378 371.092 62.9867 371.092 58.9333C371.092 54.9156 372.043 51.8933 373.946 49.8667C375.848 47.8222 378.941 46.8 383.226 46.8C387.403 46.8 390.417 47.7778 392.266 49.7333C394.132 51.6711 395.066 54.6133 395.066 58.56C395.066 62.6489 394.079 65.6711 392.106 67.6267C390.15 69.5822 387.066 70.56 382.852 70.56ZM406.584 70H397.971V52.7467L396.371 51.76V48.9067L402.104 47.3333H406.637V50.7733C406.726 50.6489 406.851 50.4889 407.011 50.2933C407.188 50.08 407.508 49.7511 407.971 49.3067C408.433 48.8622 408.904 48.4711 409.384 48.1333C409.882 47.7956 410.477 47.4933 411.171 47.2267C411.882 46.9422 412.584 46.8 413.277 46.8C415.055 46.8 416.415 47.1378 417.357 47.8133C418.3 48.4889 418.966 49.5911 419.357 51.12C419.962 50.0711 420.886 49.0933 422.131 48.1867C423.393 47.2622 424.78 46.8 426.291 46.8C427.962 46.8 429.26 47.0933 430.184 47.68C431.126 48.2489 431.811 49.2267 432.237 50.6133C432.664 52 432.877 53.9556 432.877 56.48V70H424.211V55.7067C424.211 54.9244 424.024 54.3111 423.651 53.8667C423.277 53.4222 422.708 53.2 421.944 53.2C421.428 53.2 420.726 53.6267 419.837 54.48C419.891 55.3333 419.917 56.2578 419.917 57.2533V70H411.117V55.7067C411.171 54.0356 410.46 53.2 408.984 53.2C408.877 53.2 408.771 53.2089 408.664 53.2267C408.575 53.2444 408.486 53.2622 408.397 53.28C408.326 53.2978 408.237 53.3333 408.131 53.3867C408.042 53.4222 407.962 53.4578 407.891 53.4933C407.82 53.5111 407.74 53.5556 407.651 53.6267C407.562 53.68 407.491 53.7244 407.437 53.76C407.384 53.7956 407.304 53.8578 407.197 53.9467C407.108 54.0178 407.037 54.0711 406.984 54.1067C406.948 54.1422 406.877 54.2044 406.771 54.2933C406.682 54.3644 406.62 54.4178 406.584 54.4533V70ZM449.905 70C448.874 70 447.932 69.8933 447.079 69.68C446.225 69.4667 445.479 69.2 444.839 68.88V78.0533H436.252V52.7467L434.652 51.76V48.9067L440.385 47.3333H444.839V49.12C445.479 48.4622 446.252 47.9111 447.159 47.4667C448.065 47.0222 449.123 46.8 450.332 46.8C453.265 46.8 455.416 47.8044 456.785 49.8133C458.172 51.8222 458.865 54.6044 458.865 58.16C458.865 59.8311 458.679 61.3778 458.305 62.8C457.932 64.2044 457.381 65.4489 456.652 66.5333C455.923 67.6178 454.981 68.4711 453.825 69.0933C452.687 69.6978 451.381 70 449.905 70ZM445.985 66.2933C448.367 66.2933 449.559 64.4711 449.559 60.8267V56.2933C449.559 54.6933 449.283 53.5022 448.732 52.72C448.199 51.9378 447.505 51.5467 446.652 51.5467C446.065 51.5467 445.461 51.7244 444.839 52.08V66.16C445.052 66.2133 445.247 66.2489 445.425 66.2667C445.621 66.2844 445.807 66.2933 445.985 66.2933ZM473.475 67.6267L473.208 67.92C473.031 68.1333 472.755 68.3822 472.382 68.6667C472.026 68.9511 471.608 69.2356 471.128 69.52C470.666 69.8044 470.097 70.0444 469.422 70.24C468.746 70.4533 468.053 70.56 467.342 70.56C462.542 70.56 460.142 68.1867 460.142 63.44C460.142 62.5156 460.311 61.6711 460.648 60.9067C460.986 60.1244 461.422 59.4667 461.955 58.9333C462.488 58.4 463.128 57.9289 463.875 57.52C464.622 57.0933 465.368 56.7644 466.115 56.5333C466.879 56.2844 467.679 56.08 468.515 55.92C469.351 55.76 470.097 55.6533 470.755 55.6C471.413 55.5467 472.044 55.52 472.648 55.52V55.04C472.648 53.9556 472.355 53.1911 471.768 52.7467C471.199 52.3022 470.275 52.08 468.995 52.08C467.893 52.08 466.746 52.2133 465.555 52.48C464.364 52.7289 463.431 53.0311 462.755 53.3867L461.048 49.76C462.257 48.9778 463.831 48.2933 465.768 47.7067C467.706 47.1022 469.679 46.8 471.688 46.8C473.466 46.8 474.933 46.9778 476.088 47.3333C477.244 47.6711 478.177 48.2578 478.888 49.0933C479.617 49.9111 480.133 50.96 480.435 52.24C480.737 53.5022 480.888 55.1111 480.888 57.0667V67.92L481.635 70H474.328L473.475 67.6267ZM471.368 65.8667C471.599 65.8667 471.813 65.8222 472.008 65.7333C472.222 65.6267 472.382 65.5289 472.488 65.44C472.595 65.3333 472.648 65.28 472.648 65.28V58.88C471.564 58.88 470.702 59.1822 470.062 59.7867C469.422 60.3733 469.102 61.2889 469.102 62.5333C469.102 64.7556 469.857 65.8667 471.368 65.8667ZM492.912 70H484.299V52.7467L482.699 51.76V48.9067L488.432 47.3333H492.965V50.7733L493.285 50.3733C493.499 50.0889 493.81 49.7511 494.219 49.36C494.645 48.9689 495.117 48.5867 495.632 48.2133C496.148 47.8222 496.761 47.4933 497.472 47.2267C498.201 46.9422 498.912 46.8 499.605 46.8C502.041 46.8 503.757 47.4667 504.752 48.8C505.765 50.1333 506.272 52.3644 506.272 55.4933C506.272 55.6 506.272 55.76 506.272 55.9733C506.254 56.1867 506.245 56.3556 506.245 56.48V70H497.445V55.7067C497.499 54.0356 496.788 53.2 495.312 53.2C495.205 53.2 495.099 53.2089 494.992 53.2267C494.903 53.2444 494.814 53.2622 494.725 53.28C494.654 53.2978 494.565 53.3333 494.459 53.3867C494.37 53.4222 494.29 53.4578 494.219 53.4933C494.148 53.5111 494.068 53.5556 493.979 53.6267C493.89 53.68 493.819 53.7244 493.765 53.76C493.712 53.7956 493.632 53.8578 493.525 53.9467C493.437 54.0178 493.365 54.0711 493.312 54.1067C493.277 54.1422 493.205 54.2044 493.099 54.2933C493.01 54.3644 492.948 54.4178 492.912 54.4533V70ZM520.545 79.1733C518.713 79.1733 516.989 78.9067 515.371 78.3733C513.753 77.84 512.571 77.12 511.825 76.2133L513.211 73.3333C514.242 73.92 515.878 74.2133 518.118 74.2133C518.829 74.2133 519.442 74.1333 519.958 73.9733C520.473 73.8133 520.936 73.5289 521.345 73.12C521.753 72.7289 522.065 72.1689 522.278 71.44C522.491 70.7111 522.607 69.8133 522.625 68.7467V66.4533L522.358 66.88C522.18 67.1644 521.905 67.5111 521.531 67.92C521.176 68.3111 520.767 68.7111 520.305 69.12C519.842 69.5111 519.273 69.8489 518.598 70.1333C517.94 70.4178 517.265 70.56 516.571 70.56C513.922 70.56 512.056 69.8222 510.971 68.3467C509.887 66.8533 509.345 64.3467 509.345 60.8267V51.36L508.385 50.4V47.3333H518.091V62.5067C518.091 63.3244 518.216 63.9289 518.465 64.32C518.731 64.6933 519.256 64.88 520.038 64.88C520.269 64.88 520.5 64.8444 520.731 64.7733C520.962 64.6844 521.185 64.5689 521.398 64.4267C521.629 64.2844 521.869 64.1067 522.118 63.8933V51.36L520.651 50.4V47.3333H530.811V66.88C530.811 70.8089 529.976 73.84 528.305 75.9733C526.633 78.1067 524.047 79.1733 520.545 79.1733Z" fill="black"/>
<path d="M187.406 96.2341C189.028 96.4341 190.228 96.9563 191.006 97.8007C191.806 98.6228 192.206 99.645 192.206 100.867C192.206 102.089 191.75 103.245 190.839 104.334C189.951 105.422 188.806 106.267 187.406 106.867C186.784 107.111 185.962 107.289 184.94 107.4C183.94 107.511 182.907 107.567 181.84 107.567C180.062 107.567 178.24 107.4 176.374 107.067C176.04 107 175.685 106.833 175.307 106.567C174.952 106.3 174.774 105.911 174.774 105.4C174.752 103.356 174.674 100.512 174.54 96.8674L174.507 95.0342C174.418 92.19 174.374 89.9568 174.374 88.3347C174.374 88.0458 174.54 87.7125 174.874 87.3347C175.229 86.9348 175.652 86.7126 176.14 86.6681C176.429 86.6681 176.707 86.657 176.974 86.6348C179.485 86.3904 181.162 86.2681 182.007 86.2681C183.673 86.2681 185.14 86.4348 186.406 86.7681C187.695 87.0792 188.762 87.6569 189.606 88.5013C189.917 88.8568 190.173 89.3124 190.373 89.8679C190.573 90.4012 190.673 90.9234 190.673 91.4344C190.695 92.5233 190.406 93.5232 189.806 94.4342C189.228 95.3453 188.428 95.9452 187.406 96.2341ZM182.207 89.1013C181.451 89.1013 180.662 89.1457 179.84 89.2346C179.04 89.3235 178.362 89.4346 177.807 89.5679L178.007 95.8675L179.207 95.8341C181.14 95.6342 182.562 95.4675 183.473 95.3342C184.051 95.2009 184.618 94.9453 185.173 94.5676C185.729 94.1676 186.184 93.7565 186.54 93.3343C186.917 92.8899 187.106 92.5566 187.106 92.3344C187.106 92.0011 187.04 91.6678 186.906 91.3345C186.773 90.9789 186.629 90.7234 186.473 90.5678C185.873 89.9901 185.262 89.6012 184.64 89.4013C184.018 89.2013 183.207 89.1013 182.207 89.1013ZM178.107 104.634C179.24 104.789 180.318 104.867 181.34 104.867C183.584 104.867 185.351 104.578 186.64 104C187.951 103.4 188.606 102.267 188.606 100.6C188.606 99.9339 188.106 99.3783 187.106 98.9339C186.106 98.4895 185.029 98.2673 183.873 98.2673C183.095 98.2673 182.107 98.3562 180.907 98.534C179.951 98.6673 179.018 98.7562 178.107 98.8006C178.151 100.134 178.174 100.978 178.174 101.334C178.174 102.023 178.162 102.545 178.14 102.9L178.107 104.634ZM198.759 114.3C197.914 114.3 197.203 114.155 196.626 113.866C196.07 113.6 195.648 113.266 195.359 112.866C195.092 112.489 194.959 112.155 194.959 111.866C194.959 111.489 195.092 111.189 195.359 110.966C195.626 110.766 195.948 110.666 196.326 110.666C196.548 110.666 196.759 110.733 196.959 110.866C197.159 111 197.27 111.078 197.292 111.1C197.448 111.211 197.603 111.3 197.759 111.366C197.914 111.455 198.081 111.5 198.259 111.5C198.748 111.5 199.148 111.178 199.459 110.533C199.77 109.889 200.081 108.844 200.392 107.4C199.392 105.933 198.559 104.467 197.892 103L197.126 101.234C197.015 100.967 196.703 100.278 196.192 99.1672C195.704 98.034 195.215 97.0341 194.726 96.1675C194.415 95.5453 194.259 95.1231 194.259 94.9009C194.259 94.3454 194.448 93.9343 194.826 93.6676C195.226 93.401 195.681 93.2677 196.192 93.2677C196.548 93.2677 196.815 93.3454 196.992 93.501C197.192 93.6343 197.415 93.8898 197.659 94.2676C198.303 95.3342 199.003 96.9341 199.759 99.0673C200.203 100.289 200.559 101.223 200.825 101.867C201.092 102.489 201.414 103.123 201.792 103.767C202.17 102.9 202.647 101.423 203.225 99.3339C203.581 98.134 203.87 97.1785 204.092 96.4674C204.336 95.7341 204.603 95.0675 204.892 94.4676C205.092 94.0676 205.336 93.7454 205.625 93.501C205.936 93.2565 206.281 93.1343 206.658 93.1343C207.036 93.1343 207.436 93.2788 207.858 93.5676C208.303 93.8343 208.525 94.1565 208.525 94.5342C208.525 94.7564 208.447 95.0231 208.292 95.3342C207.425 97.334 206.658 99.2228 205.992 101C205.347 102.756 204.725 104.689 204.125 106.8C203.77 107.978 203.392 109.1 202.992 110.166C202.614 111.233 202.347 111.889 202.192 112.133C201.748 112.755 201.248 113.266 200.692 113.666C200.137 114.088 199.492 114.3 198.759 114.3ZM235.135 89.6012C235.468 90.0012 235.702 90.3234 235.835 90.5678C235.968 90.8123 236.035 91.0456 236.035 91.2678C236.035 91.5344 235.857 91.8455 235.502 92.2011C235.168 92.5566 234.835 92.7344 234.502 92.7344C234.057 92.7344 233.702 92.6677 233.435 92.5344C233.168 92.401 232.946 92.19 232.768 91.9011C232.346 91.2345 231.857 90.6456 231.302 90.1345C230.746 89.6012 230.002 89.3346 229.069 89.3346C228.158 89.3346 227.136 89.5457 226.002 89.9679C224.869 90.3901 224.036 90.9123 223.502 91.5344C222.303 93.001 221.703 94.9453 221.703 97.3674C221.703 99.3006 222.303 100.956 223.502 102.334C224.769 103.756 226.369 104.467 228.302 104.467C229.191 104.467 230.158 104.311 231.202 104C232.269 103.667 233.113 103.134 233.735 102.4H233.702C234.102 101.978 234.602 101.767 235.202 101.767C235.557 101.767 235.89 101.923 236.202 102.234C236.535 102.545 236.702 102.856 236.702 103.167C236.702 103.5 236.646 103.8 236.535 104.067C236.446 104.311 236.268 104.589 236.002 104.9C235.091 105.9 233.924 106.6 232.502 107C231.102 107.378 229.502 107.567 227.702 107.567C226.213 107.567 224.78 107.211 223.402 106.5C222.047 105.789 220.925 104.889 220.036 103.8C219.592 103.156 219.158 102.234 218.736 101.034C218.336 99.8116 218.136 98.8228 218.136 98.0673C218.136 96.1341 218.425 94.3009 219.003 92.5677C219.603 90.8123 220.492 89.4124 221.669 88.368C222.447 87.6569 223.569 87.1236 225.036 86.7681C226.502 86.4126 227.847 86.2348 229.069 86.2348C230.046 86.2348 230.88 86.3792 231.569 86.6681C232.28 86.9348 232.891 87.3014 233.402 87.768C233.913 88.2124 234.491 88.8235 235.135 89.6012ZM254.82 105.9C254.82 106.389 254.553 106.8 254.02 107.133C253.509 107.467 253.031 107.633 252.586 107.633C251.742 107.633 251.064 107.533 250.553 107.333C250.064 107.111 249.609 106.711 249.187 106.133C248.609 106.645 247.82 107.033 246.82 107.3C245.82 107.544 244.898 107.667 244.054 107.667C242.676 107.667 241.543 107.3 240.654 106.567C239.765 105.811 239.321 104.711 239.321 103.267C239.321 102.645 239.487 102.078 239.821 101.567C240.154 101.034 240.609 100.567 241.187 100.167C241.832 99.745 242.565 99.4228 243.387 99.2006C244.209 98.9561 245.065 98.8339 245.953 98.8339C246.42 98.8339 246.976 98.9228 247.62 99.1006C248.264 99.2783 248.764 99.4672 249.12 99.6672V99.1339C249.12 97.934 248.831 97.1118 248.253 96.6674C247.676 96.2008 246.742 95.9675 245.454 95.9675C245.076 95.9675 244.698 96.0452 244.32 96.2008C243.965 96.3563 243.554 96.5674 243.087 96.8341C242.465 97.1674 241.876 97.334 241.32 97.334C241.12 97.334 240.932 97.2007 240.754 96.9341C240.576 96.6452 240.487 96.3897 240.487 96.1675C240.487 95.5231 240.787 94.9675 241.387 94.5009C242.009 94.0343 242.743 93.6898 243.587 93.4676C244.431 93.2232 245.187 93.101 245.854 93.101C246.52 93.101 247.287 93.2343 248.153 93.501C249.02 93.7454 249.731 94.0898 250.287 94.5342C250.953 95.112 251.464 95.7897 251.82 96.5674C252.198 97.3229 252.386 98.1562 252.386 99.0673C252.386 99.3561 252.364 99.7894 252.32 100.367C252.275 100.989 252.253 101.523 252.253 101.967C252.253 102.167 252.231 102.467 252.186 102.867C252.142 103.356 252.12 103.745 252.12 104.034C252.12 104.3 252.22 104.534 252.42 104.734C252.62 104.911 252.853 105 253.12 105L254.053 104.967C254.297 104.967 254.486 105.056 254.62 105.233C254.753 105.411 254.82 105.633 254.82 105.9ZM244.087 105.034C245.042 105.034 245.842 104.934 246.487 104.734C247.131 104.534 247.909 104.167 248.82 103.634C248.909 103.256 248.964 102.756 248.987 102.134C247.764 101.556 246.753 101.267 245.953 101.267C245.042 101.267 244.231 101.434 243.52 101.767C242.809 102.1 242.454 102.689 242.454 103.534C242.454 103.956 242.632 104.311 242.987 104.6C243.343 104.889 243.709 105.034 244.087 105.034ZM258.469 93.0343C259.935 93.0343 260.669 94.0009 260.669 95.9341C260.669 96.1786 260.646 96.723 260.602 97.5674C260.558 98.5451 260.535 99.3117 260.535 99.8672C260.535 101.423 260.746 102.678 261.169 103.634C261.324 103.945 261.602 104.189 262.002 104.367C262.424 104.545 262.78 104.634 263.068 104.634C263.513 104.634 263.88 104.578 264.168 104.467C264.457 104.356 264.724 104.189 264.968 103.967C265.235 103.745 265.491 103.5 265.735 103.234C266.157 102.767 266.424 102.234 266.535 101.634C266.668 101.012 266.746 100.189 266.768 99.1672C266.768 98.5228 266.802 97.9007 266.868 97.3007C267.002 96.323 267.068 95.4119 267.068 94.5676C267.068 94.1009 267.19 93.7121 267.435 93.401C267.701 93.0677 268.079 92.901 268.568 92.901C268.813 92.901 269.101 92.9899 269.435 93.1677C269.79 93.3232 270.024 93.501 270.135 93.701C270.29 93.9676 270.368 94.3342 270.368 94.8009C270.368 95.0897 270.335 95.3564 270.268 95.6008C270.157 95.9341 270.101 96.3563 270.101 96.8674C270.101 97.1341 270.124 97.5785 270.168 98.2006C270.235 98.6673 270.268 99.145 270.268 99.6339C270.268 101.123 270.379 102.223 270.601 102.934C270.846 103.689 271.179 104.356 271.601 104.934C272.046 105.4 272.346 105.745 272.501 105.967C272.657 106.167 272.734 106.345 272.734 106.5C272.734 106.767 272.601 107.022 272.334 107.267C272.068 107.511 271.79 107.633 271.501 107.633C270.679 107.633 269.957 107.356 269.335 106.8C268.735 106.222 268.29 105.489 268.001 104.6C267.757 104.889 267.435 105.245 267.035 105.667C266.635 106.089 266.257 106.433 265.902 106.7C265.035 107.322 263.924 107.633 262.568 107.633C262.013 107.633 261.402 107.467 260.735 107.133C260.091 106.8 259.502 106.367 258.969 105.833C258.435 105.278 258.069 104.689 257.869 104.067C257.847 104.022 257.78 103.845 257.669 103.534C257.58 103.223 257.536 102.756 257.536 102.134L257.502 96.8007C257.502 96.4897 257.424 96.0008 257.269 95.3342C257.136 94.8898 257.069 94.5565 257.069 94.3342C257.069 93.9565 257.191 93.6454 257.436 93.401C257.702 93.1566 258.047 93.0343 258.469 93.0343ZM276.931 88.8013C276.531 89.2457 276.331 89.7457 276.331 90.3012C276.331 90.5901 276.453 90.8234 276.697 91.0011C276.942 91.1789 277.175 91.2678 277.397 91.2678C277.953 91.2678 278.408 91.0123 278.764 90.5012C279.12 89.9679 279.631 89.7012 280.297 89.7012C280.497 89.7012 280.675 89.7457 280.831 89.8346C281.008 89.9234 281.23 90.0679 281.497 90.2679C281.919 90.579 282.308 90.8123 282.664 90.9678C283.019 91.1234 283.486 91.2011 284.064 91.2011C284.575 91.2011 285.075 91.0678 285.564 90.8012C286.075 90.5123 286.486 90.1568 286.797 89.7346C287.13 89.2902 287.297 88.8457 287.297 88.4013C287.297 88.068 287.175 87.8236 286.93 87.668C286.708 87.4903 286.452 87.4014 286.163 87.4014C285.919 87.4014 285.719 87.4569 285.564 87.568C285.408 87.6569 285.264 87.8014 285.13 88.0014C285.108 88.0458 285.052 88.1347 284.964 88.268C284.897 88.4013 284.797 88.5235 284.664 88.6346C284.53 88.7457 284.352 88.8013 284.13 88.8013C283.73 88.8235 283.219 88.6124 282.597 88.168C281.819 87.6347 281.008 87.3681 280.164 87.3681C279.608 87.3681 279.031 87.5014 278.431 87.768C277.831 88.0125 277.331 88.3569 276.931 88.8013ZM290.197 105.233C290.33 105.411 290.397 105.633 290.397 105.9C290.397 106.389 290.13 106.8 289.597 107.133C289.085 107.467 288.608 107.633 288.163 107.633C287.319 107.633 286.641 107.533 286.13 107.333C285.641 107.111 285.186 106.711 284.764 106.133C284.186 106.645 283.397 107.033 282.397 107.3C281.397 107.544 280.475 107.667 279.631 107.667C278.253 107.667 277.12 107.3 276.231 106.567C275.342 105.811 274.898 104.711 274.898 103.267C274.898 102.645 275.064 102.078 275.398 101.567C275.731 101.034 276.186 100.567 276.764 100.167C277.409 99.745 278.142 99.4228 278.964 99.2006C279.786 98.9561 280.642 98.8339 281.53 98.8339C281.997 98.8339 282.553 98.9228 283.197 99.1006C283.841 99.2783 284.341 99.4672 284.697 99.6672V99.1339C284.697 97.934 284.408 97.1118 283.83 96.6674C283.253 96.2008 282.319 95.9675 281.03 95.9675C280.653 95.9675 280.275 96.0452 279.897 96.2008C279.542 96.3563 279.131 96.5674 278.664 96.8341C278.042 97.1674 277.453 97.334 276.897 97.334C276.697 97.334 276.509 97.2007 276.331 96.9341C276.153 96.6452 276.064 96.3897 276.064 96.1675C276.064 95.5231 276.364 94.9675 276.964 94.5009C277.586 94.0343 278.32 93.6898 279.164 93.4676C280.008 93.2232 280.764 93.101 281.43 93.101C282.097 93.101 282.864 93.2343 283.73 93.501C284.597 93.7454 285.308 94.0898 285.863 94.5342C286.53 95.112 287.041 95.7897 287.397 96.5674C287.774 97.3229 287.963 98.1562 287.963 99.0673C287.963 99.3561 287.941 99.7894 287.897 100.367C287.852 100.989 287.83 101.523 287.83 101.967C287.83 102.167 287.808 102.467 287.763 102.867C287.719 103.356 287.697 103.745 287.697 104.034C287.697 104.3 287.797 104.534 287.997 104.734C288.197 104.911 288.43 105 288.697 105L289.63 104.967C289.874 104.967 290.063 105.056 290.197 105.233ZM278.564 104.6C278.92 104.889 279.286 105.034 279.664 105.034C280.619 105.034 281.419 104.934 282.064 104.734C282.708 104.534 283.486 104.167 284.397 103.634C284.486 103.256 284.541 102.756 284.564 102.134C283.341 101.556 282.33 101.267 281.53 101.267C280.619 101.267 279.808 101.434 279.097 101.767C278.386 102.1 278.031 102.689 278.031 103.534C278.031 103.956 278.208 104.311 278.564 104.6Z" fill="#D9D9D9"/>
</svg>
