<svg width="53" height="53" viewBox="0 0 53 53" fill="none" xmlns="http://www.w3.org/2000/svg">
<path d="M41.7715 0.459015C47.7127 0.45908 52.5293 5.27562 52.5293 11.2168V41.3379C52.5292 47.2791 47.7126 52.0957 41.7715 52.0957H11.6504C5.70917 52.0957 0.892627 47.2791 0.892563 41.3379V11.2168C0.892563 5.27558 5.70913 0.459015 11.6504 0.459015H41.7715ZM26.708 6.04398C21.2197 6.04398 20.529 6.06898 18.3721 6.16507C16.2148 6.26623 14.7453 6.60479 13.458 7.1055C12.107 7.61216 10.8835 8.40955 9.87401 9.44046C8.8431 10.45 8.04571 11.6735 7.53905 13.0244C7.03835 14.3092 6.69725 15.7811 6.59862 17.9307C6.50251 20.0931 6.47753 20.7812 6.47752 26.2793C6.47752 31.7725 6.50252 32.461 6.59862 34.6182C6.69978 36.7731 7.03828 38.2429 7.53905 39.5303C8.05754 40.8607 8.74851 41.9888 9.87401 43.1143C10.9969 44.2396 12.1249 44.9323 13.4551 45.4483C14.745 45.9491 16.2123 46.291 18.3672 46.3897C20.5269 46.4858 21.2152 46.5108 26.7109 46.5108C32.2064 46.5108 32.8921 46.4858 35.0517 46.3897C37.2041 46.2885 38.6794 45.9491 39.9668 45.4483C41.3167 44.9413 42.5392 44.1448 43.5478 43.1143C44.6733 41.9888 45.3633 40.8606 45.8818 39.5303C46.3801 38.2429 46.7221 36.7731 46.8232 34.6182C46.9193 32.4611 46.9443 31.7729 46.9443 26.2774C46.9443 20.7817 46.9193 20.0933 46.8232 17.9336C46.7221 15.7814 46.38 14.3092 45.8818 13.0244C45.3752 11.6735 44.5787 10.4499 43.5478 9.44046C42.5383 8.40955 41.3148 7.61216 39.9639 7.1055C38.674 6.60475 37.202 6.26372 35.0498 6.16507C32.8901 6.06897 32.2044 6.04398 26.708 6.04398ZM24.8974 9.69046H26.7129C32.1153 9.69046 32.7556 9.70803 34.8877 9.80667C36.8605 9.89519 37.9332 10.2273 38.6465 10.503C39.5896 10.8696 40.2646 11.3096 40.9726 12.0176C41.6808 12.7258 42.1186 13.3988 42.4853 14.3448C42.7635 15.0555 43.0921 16.1281 43.1806 18.1006C43.2793 20.2325 43.2998 20.8729 43.2998 26.2725C43.2998 31.6719 43.2793 32.3144 43.1806 34.4463C43.0921 36.4189 42.761 37.4889 42.4853 38.2022C42.1587 39.0794 41.6414 39.8734 40.9707 40.5264C40.2625 41.2346 39.5894 41.6724 38.6435 42.0391C37.9354 42.3173 36.863 42.6463 34.8877 42.7373C32.7556 42.8334 32.1153 42.8565 26.7129 42.8565C21.3109 42.8565 20.6682 42.8334 18.5361 42.7373C16.5635 42.6463 15.4935 42.3173 14.7803 42.0391C13.9023 41.7135 13.1071 41.1966 12.4531 40.5264C11.7814 39.873 11.2635 39.0784 10.9365 38.2002C10.6608 37.4896 10.3288 36.4169 10.2402 34.4444C10.1441 32.3122 10.124 31.6716 10.124 26.2666C10.124 20.8621 10.1441 20.2268 10.2402 18.0948C10.3313 16.1224 10.6603 15.0501 10.9385 14.3369C11.3052 13.3936 11.745 12.7179 12.4531 12.0098C13.1613 11.3016 13.8344 10.8638 14.7803 10.4971C15.4935 10.2189 16.5635 9.8909 18.5361 9.79984C20.4027 9.71384 21.1264 9.68811 24.8974 9.68558V9.69046ZM26.7129 15.8867C25.3348 15.8653 23.966 16.1184 22.6865 16.6309C21.407 17.1434 20.242 17.9061 19.2598 18.8731C18.2777 19.84 17.4972 20.9925 16.9648 22.2637C16.4324 23.5351 16.1582 24.9 16.1582 26.2784C16.1582 27.6567 16.4324 29.0216 16.9648 30.293C17.4973 31.5644 18.2775 32.7176 19.2598 33.6846C20.242 34.6516 21.407 35.4133 22.6865 35.9258C23.966 36.4383 25.3348 36.6914 26.7129 36.67C29.4407 36.6274 32.043 35.5135 33.957 33.5694C35.8709 31.6253 36.9433 29.0065 36.9433 26.2784C36.9433 23.5502 35.871 20.9314 33.957 18.9873C32.043 17.0432 29.4407 15.9293 26.7129 15.8867ZM26.7129 19.5323C27.5987 19.5323 28.4765 19.706 29.2949 20.045C30.1132 20.3839 30.857 20.8815 31.4834 21.5078C32.1096 22.1341 32.6064 22.8781 32.9453 23.6963C33.2842 24.5146 33.459 25.3917 33.459 26.2774C33.4589 27.1631 33.2842 28.0401 32.9453 28.8584C32.6063 29.6767 32.1097 30.4206 31.4834 31.0469C30.8571 31.6732 30.1132 32.1698 29.2949 32.5088C28.4765 32.8478 27.5987 33.0225 26.7129 33.0225C24.924 33.0224 23.2083 32.3118 21.9433 31.0469C20.6784 29.7819 19.9678 28.0663 19.9678 26.2774C19.9678 24.4885 20.6785 22.7728 21.9433 21.5078C23.2083 20.2429 24.924 19.5324 26.7129 19.5323ZM37.5127 13.0498C37.194 13.0499 36.8784 13.1124 36.584 13.2344C36.2894 13.3564 36.0213 13.5353 35.7959 13.7608C35.5706 13.9861 35.3915 14.2535 35.2695 14.5479C35.1475 14.8425 35.0849 15.1587 35.0849 15.4776C35.085 15.7962 35.1476 16.1118 35.2695 16.4063C35.3915 16.7008 35.5705 16.9689 35.7959 17.1944C36.0213 17.4198 36.2894 17.5987 36.584 17.7207C36.8784 17.8427 37.194 17.9053 37.5127 17.9053C38.1565 17.9053 38.7742 17.6496 39.2295 17.1944C39.6848 16.739 39.9414 16.1215 39.9414 15.4776C39.9414 14.8336 39.6848 14.2161 39.2295 13.7608C38.7741 13.3055 38.1566 13.0498 37.5127 13.0498Z" fill="black"/>
</svg>
