<svg width="53" height="53" viewBox="0 0 53 53" fill="none" xmlns="http://www.w3.org/2000/svg">
<path d="M8.17843 0.459076C4.10976 0.459076 0.801804 3.76703 0.801804 7.8357V44.7188C0.801804 48.7875 4.10976 52.0954 8.17843 52.0954H45.0615C49.1302 52.0954 52.4382 48.7875 52.4382 44.7188V7.8357C52.4382 3.76703 49.1302 0.459076 45.0615 0.459076H8.17843ZM42.4221 10.1409L30.4581 23.8107L44.5313 42.4136H33.5125L24.8911 31.1297L15.0133 42.4136H9.53849L22.3323 27.7872L8.83541 10.1409H20.1309L27.9339 20.4566L36.9473 10.1409H42.4221ZM38.0653 39.1402L18.4826 13.2414H15.2208L35.0224 39.1402H38.0538H38.0653Z" fill="black"/>
</svg>
